<?xml version="1.0" encoding="utf-8"?>
<!-- Generator: Adobe Illustrator 21.1.0, SVG Export Plug-In . SVG Version: 6.00 Build 0)  -->
<svg version="1.1" id="Layer_1" xmlns="http://www.w3.org/2000/svg" xmlns:xlink="http://www.w3.org/1999/xlink" x="0px" y="0px"
	 viewBox="0 0 176.5 34.3" style="enable-background:new 0 0 176.5 34.3;" xml:space="preserve">
<style type="text/css">
	.st0{opacity:5.000000e-02;fill:#063342;}
	.st1{opacity:0.24;fill:#063342;}
	.st2{fill:#063342;}
	.st3{fill:#FFFFFF;}
	.st4{stroke:#FFFFFF;stroke-width:3;stroke-miterlimit:10;}
	.st5{stroke:#000000;stroke-width:10.0927;stroke-miterlimit:10;}
	.st6{fill:none;stroke:#000000;stroke-width:8;stroke-linejoin:round;stroke-miterlimit:10;}
	.st7{fill:none;stroke:#000000;stroke-width:32;stroke-miterlimit:10;}
	.st8{fill:#B81D8B;}
	.st9{fill:#BEE6F6;}
	.st10{fill:#21B24B;}
	.st11{fill:none;stroke:#FFFFFF;stroke-width:2;stroke-miterlimit:10;}
	.st12{fill:#F6DD99;}
	.st13{fill:#FFCC66;}
	.st14{opacity:0.8;}
	.st15{fill:none;stroke:#000000;stroke-width:1.5;stroke-miterlimit:10;}
	.st16{fill:none;stroke:#000000;stroke-width:9;stroke-miterlimit:10;}
	.st17{display:none;}
	.st18{display:inline;}
	.st19{fill:#FFFFFF;stroke:#FFFFFF;stroke-width:3;stroke-miterlimit:10;}
	.st20{display:none;fill:#FFFFFF;}
	.st21{fill:#FFFFFF;stroke:#000000;stroke-width:8;stroke-miterlimit:10;}
	.st22{fill:#ED298B;}
	.st23{fill:#9B0B5B;}
	.st24{fill:none;stroke:#000000;stroke-miterlimit:10;}
	.st25{fill:none;stroke:#FFFFFF;stroke-width:1.5;stroke-miterlimit:10;}
	.st26{display:none;fill:none;stroke:#F26135;stroke-width:0.2509;stroke-miterlimit:10;}
	.st27{stroke:#000000;stroke-width:2.0152;stroke-miterlimit:10;}
	.st28{fill:#CF5027;}
	.st29{fill:#CD4F82;}
	.st30{fill:#D9B821;}
	.st31{clip-path:url(#SVGID_2_);fill:#D9B821;}
	.st32{clip-path:url(#SVGID_4_);fill:#D9B821;}
	.st33{fill:#999B9E;}
	.st34{display:inline;fill:none;stroke:#CD4F82;stroke-miterlimit:10;}
	.st35{display:none;fill:#CD4F82;}
	.st36{fill:none;stroke:#000000;stroke-width:21.2444;stroke-linejoin:round;stroke-miterlimit:10;}
	.st37{fill:none;stroke:#000000;stroke-width:22.5496;stroke-linejoin:round;stroke-miterlimit:10;}
	.st38{fill:none;stroke:#000000;stroke-width:5;}
	.st39{fill:none;stroke:#000000;stroke-width:5.4221;}
	.st40{fill:none;stroke:#FFFFFF;stroke-width:5;}
	.st41{fill:none;stroke:#FFFFFF;stroke-width:5.4221;}
	.st42{fill:none;stroke:#FFFFFF;stroke-width:3;}
	.st43{stroke:#000000;stroke-width:4;stroke-miterlimit:10;}
	.st44{fill:#FFFFFF;stroke:#FFFFFF;stroke-width:4;stroke-miterlimit:10;}
	.st45{fill:none;stroke:#000000;stroke-width:3;}
	.st46{stroke:#FFFFFF;stroke-width:3.5585;stroke-miterlimit:10;}
	.st47{fill:#FFFFFF;stroke:#000000;stroke-width:3;stroke-miterlimit:10;}
	.st48{fill:#4F4F51;}
	.st49{fill:#DB3439;}
	.st50{fill:none;stroke:#000000;stroke-width:0.8273;}
	.st51{fill:none;stroke:#000000;stroke-width:0.8971;}
	.st52{fill:none;stroke:#FFFFFF;stroke-width:0.4964;}
	.st53{fill:#F6894D;}
	.st54{opacity:0.8;fill:#DB3439;}
</style>
<g>
	<g>
		<g>
			<g>
				<path class="st3" d="M18,14.4c-1-0.6-2.1-1.1-3.3-1.4c-1.2-0.3-2.4-0.5-3.5-0.5h-0.3c-0.6,0-1.2-0.1-1.8-0.2
					c-0.6-0.2-1.2-0.4-1.7-0.7C6.8,11.3,6.3,11,6,10.5c-0.3-0.4-0.5-0.8-0.5-1.3c0-0.5,0.1-1,0.4-1.4c0.3-0.4,0.7-0.8,1.2-1
					c0.5-0.3,1.2-0.5,1.9-0.6c0.8-0.1,1.6-0.2,2.5-0.2c1.3,0,2.4,0.1,3.3,0.4c0.9,0.2,1.7,0.6,2.5,1l0.4,0.2l0.9-2.8l-0.3-0.1
					c-0.6-0.3-1.2-0.5-1.7-0.7c-0.5-0.2-1.1-0.3-1.6-0.4c-0.5-0.1-1.1-0.2-1.6-0.2c-0.5,0-1.1,0-1.7,0c0,0,0,0,0,0
					C8.9,3.3,6.7,3.8,5.1,4.8c-1.7,1-2.5,2.5-2.6,4.3v0.1c0,1.1,0.3,2.1,0.9,2.9C4,12.9,4.7,13.5,5.5,14c0.8,0.5,1.7,0.8,2.6,1
					c0.9,0.2,1.8,0.3,2.5,0.3c1.8,0,3.2,0.2,4.2,0.7c1.1,0.4,1.9,1,2.4,1.5c0.5,0.6,0.9,1.1,1.1,1.7c0.2,0.7,0.3,1.1,0.3,1.2
					c0,1-0.2,1.9-0.7,2.5c-0.5,0.7-1.1,1.3-1.8,1.8c-0.7,0.5-1.6,0.8-2.5,1c-0.9,0.2-1.8,0.3-2.6,0.3c-1.3,0-2.6-0.1-3.8-0.4
					c-1.2-0.3-2.5-0.6-3.7-1l-0.5-0.2L3,24.8c-0.2,0.3-0.3,0.6-0.5,1c-0.1,0.4-0.3,0.7-0.4,1l-0.2,0.4l0.3,0.2
					c0.6,0.3,1.3,0.5,2,0.7c0.7,0.2,1.5,0.4,2.3,0.5c0.8,0.1,1.6,0.2,2.3,0.3c0.7,0.1,1.4,0.1,2,0.1c1.5,0,2.9-0.2,4.1-0.6
					c1.3-0.4,2.4-0.9,3.3-1.7c1-0.7,1.7-1.6,2.3-2.7c0.5-1,0.8-2.2,0.9-3.6l0-0.2c0-1.3-0.3-2.5-1-3.5C19.9,15.8,19,15,18,14.4z"/>
				<polygon class="st3" points="57.5,3.4 54.5,3.4 54.5,28.5 72.8,28.5 72.8,25.6 57.5,25.6 				"/>
				<path class="st3" d="M74.4,28.5h3.4l6.5-13.4h5.9l6.4,13.4h3.3L87.2,2.9L74.4,28.5z M88.8,12.3h-3.2L87.2,9L88.8,12.3z"/>
				<path class="st3" d="M117.1,15.1c0.7-0.1,1.3-0.3,1.8-0.5c0.7-0.4,1.2-0.8,1.6-1.4c0.4-0.6,0.7-1.2,0.9-1.8
					c0.2-0.7,0.3-1.3,0.3-2c0-1.1-0.2-2.1-0.6-2.8c-0.4-0.8-0.9-1.4-1.6-1.8c-0.7-0.4-1.5-0.8-2.4-1c-0.9-0.2-1.9-0.3-3-0.3H103
					v25.1h2.9V15.1h8l6.8,13.4h3.4L117.1,15.1z M117.6,11.7c-0.4,0.2-0.8,0.4-1.4,0.4c-0.6,0.1-1.3,0.1-2.1,0.1h-8.2V6.4h8.1
					c1.7,0,2.9,0.2,3.7,0.7c0.7,0.4,1,1.2,1,2.3c0,0.6-0.1,1.2-0.3,1.6C118.2,11.3,117.9,11.5,117.6,11.7z"/>
			</g>
			<g>
				<g>
					<circle class="st3" cx="44.4" cy="7.2" r="2.8"/>
					<path class="st3" d="M49.1,11c-0.2-0.5-0.4-0.9-0.6-1.3c-0.5,0.9-1.3,1.5-2.3,1.9c0.1,0.2,0.2,0.3,0.2,0.5
						c0.5,1.2,0.8,2.5,0.8,3.9c0,1.4-0.3,2.7-0.8,3.9c-0.5,1.2-1.2,2.2-2.1,3.1c-0.9,0.9-1.9,1.6-3.1,2.1c-1.2,0.5-2.5,0.8-3.8,0.8
						c-1.4,0-2.7-0.3-3.9-0.8c-1.2-0.5-2.3-1.2-3.1-2.1c-0.9-0.9-1.6-1.9-2.1-3.1c-0.5-1.2-0.8-2.5-0.8-3.9c0-1.4,0.3-2.7,0.8-3.9
						c0.5-1.2,1.2-2.2,2.1-3.1c0.9-0.9,1.9-1.6,3.1-2.1c1.2-0.5,2.5-0.8,3.9-0.8c0.8,0,1.6,0.1,2.4,0.3c0.2-1,0.7-1.9,1.4-2.6
						c-1.2-0.4-2.5-0.6-3.9-0.6c-1.8,0-3.5,0.3-5,1c-1.6,0.7-2.9,1.6-4.1,2.7c-1.2,1.2-2.1,2.5-2.7,4.1c-0.7,1.6-1,3.2-1,5
						c0,1.7,0.3,3.4,1,5c0.7,1.6,1.6,2.9,2.7,4.1c1.2,1.2,2.5,2.1,4.1,2.7c1.6,0.7,3.2,1,5,1c1.7,0,3.4-0.3,5-1
						c1.5-0.7,2.9-1.6,4.1-2.7s2.1-2.5,2.7-4.1c0.7-1.6,1-3.2,1-5C50.1,14.3,49.7,12.6,49.1,11z"/>
				</g>
				<g>
					<circle class="st3" cx="37.4" cy="15.8" r="4.1"/>
				</g>
			</g>
		</g>
	</g>
	<g>
		<path class="st3" d="M133.7,2.9h2.3c0.7,0,1.4,0.1,2,0.3c0.6,0.2,1,0.5,1.4,1c0.4,0.4,0.6,0.9,0.8,1.5c0.2,0.6,0.3,1.3,0.3,2
			s-0.1,1.4-0.3,2c-0.2,0.6-0.4,1.1-0.8,1.5c-0.4,0.4-0.8,0.8-1.4,1c-0.5,0.2-1.2,0.3-1.9,0.3h-2.3V2.9z M135.8,12
			c0.7,0,1.2-0.1,1.7-0.3c0.5-0.2,0.9-0.5,1.2-0.9c0.3-0.4,0.5-0.8,0.7-1.4c0.1-0.5,0.2-1.1,0.2-1.7c0-0.6-0.1-1.2-0.2-1.7
			c-0.1-0.5-0.4-1-0.7-1.3c-0.3-0.4-0.7-0.7-1.2-0.9c-0.5-0.2-1-0.3-1.7-0.3h-1.5V12H135.8z"/>
		<path class="st3" d="M142.3,9c0-0.6,0.1-1.1,0.3-1.6c0.2-0.5,0.4-0.9,0.7-1.2c0.3-0.3,0.6-0.6,1-0.7c0.4-0.2,0.7-0.3,1.1-0.3
			c0.8,0,1.5,0.3,2,0.9c0.5,0.6,0.7,1.4,0.7,2.4c0,0.1,0,0.2,0,0.3c0,0.1,0,0.2,0,0.3h-5.1c0,0.4,0.1,0.9,0.2,1.2
			c0.1,0.4,0.3,0.7,0.5,1c0.2,0.3,0.5,0.5,0.8,0.6c0.3,0.2,0.7,0.2,1.1,0.2c0.4,0,0.7-0.1,1-0.2c0.3-0.1,0.6-0.3,0.9-0.5l0.3,0.5
			c-0.3,0.2-0.6,0.3-0.9,0.5c-0.3,0.1-0.8,0.2-1.3,0.2c-0.5,0-0.9-0.1-1.3-0.3s-0.7-0.4-1-0.7c-0.3-0.3-0.5-0.7-0.7-1.2
			C142.3,10.1,142.3,9.6,142.3,9z M147.4,8.6c0-0.9-0.2-1.6-0.6-2.1c-0.4-0.5-0.9-0.7-1.5-0.7c-0.3,0-0.6,0.1-0.9,0.2
			c-0.3,0.1-0.5,0.3-0.7,0.5c-0.2,0.2-0.4,0.5-0.5,0.9c-0.1,0.3-0.2,0.7-0.3,1.1H147.4z"/>
		<path class="st3" d="M149.8,11.3c0.3,0.3,0.6,0.5,1,0.6c0.3,0.2,0.8,0.3,1.3,0.3c0.6,0,1-0.1,1.3-0.4c0.3-0.3,0.4-0.6,0.4-1
			c0-0.2-0.1-0.4-0.2-0.6c-0.1-0.2-0.2-0.3-0.4-0.4c-0.2-0.1-0.4-0.2-0.6-0.3c-0.2-0.1-0.4-0.2-0.6-0.3c-0.3-0.1-0.5-0.2-0.8-0.3
			c-0.3-0.1-0.5-0.2-0.7-0.4c-0.2-0.2-0.4-0.3-0.5-0.5c-0.1-0.2-0.2-0.5-0.2-0.8c0-0.3,0-0.5,0.1-0.7c0.1-0.2,0.2-0.4,0.4-0.6
			c0.2-0.2,0.4-0.3,0.7-0.4c0.3-0.1,0.6-0.1,1-0.1c0.4,0,0.7,0.1,1.1,0.2c0.4,0.1,0.7,0.3,0.9,0.5l-0.4,0.5
			c-0.2-0.2-0.5-0.3-0.8-0.4c-0.3-0.1-0.6-0.2-0.9-0.2c-0.3,0-0.5,0-0.7,0.1c-0.2,0.1-0.4,0.2-0.5,0.3c-0.1,0.1-0.2,0.3-0.3,0.4
			s-0.1,0.3-0.1,0.5c0,0.2,0,0.4,0.1,0.5c0.1,0.1,0.2,0.3,0.4,0.4c0.2,0.1,0.3,0.2,0.5,0.3c0.2,0.1,0.4,0.2,0.6,0.2
			c0.3,0.1,0.5,0.2,0.8,0.3c0.3,0.1,0.5,0.2,0.7,0.4c0.2,0.2,0.4,0.4,0.5,0.6c0.1,0.2,0.2,0.5,0.2,0.9c0,0.3-0.1,0.5-0.2,0.8
			c-0.1,0.2-0.3,0.5-0.5,0.6c-0.2,0.2-0.5,0.3-0.8,0.4c-0.3,0.1-0.6,0.2-1,0.2c-0.5,0-1-0.1-1.5-0.3s-0.8-0.4-1.1-0.7L149.8,11.3z"
			/>
		<path class="st3" d="M157,3.8c-0.2,0-0.3-0.1-0.4-0.2c-0.1-0.1-0.2-0.2-0.2-0.4c0-0.2,0.1-0.3,0.2-0.4c0.1-0.1,0.3-0.2,0.4-0.2
			c0.2,0,0.3,0.1,0.4,0.2c0.1,0.1,0.2,0.2,0.2,0.4c0,0.2-0.1,0.3-0.2,0.4C157.3,3.7,157.2,3.8,157,3.8z M156.7,5.5h0.6v7.1h-0.6V5.5
			z"/>
		<path class="st3" d="M159.8,14c0-0.3,0.1-0.6,0.3-0.9c0.2-0.3,0.4-0.6,0.8-0.8v-0.1c-0.2-0.1-0.3-0.3-0.4-0.4
			c-0.1-0.2-0.2-0.4-0.2-0.7c0-0.3,0.1-0.6,0.3-0.8c0.2-0.2,0.3-0.4,0.5-0.5V9.8c-0.2-0.2-0.4-0.5-0.6-0.8c-0.2-0.3-0.3-0.7-0.3-1.1
			c0-0.4,0.1-0.7,0.2-1c0.1-0.3,0.3-0.6,0.5-0.8c0.2-0.2,0.5-0.4,0.8-0.5c0.3-0.1,0.6-0.2,1-0.2c0.2,0,0.4,0,0.5,0.1
			c0.2,0,0.3,0.1,0.4,0.1h2.4V6h-1.6c0.2,0.2,0.4,0.4,0.6,0.8c0.1,0.3,0.2,0.7,0.2,1c0,0.4-0.1,0.7-0.2,1c-0.1,0.3-0.3,0.6-0.5,0.8
			c-0.2,0.2-0.5,0.4-0.8,0.5c-0.3,0.1-0.6,0.2-1,0.2c-0.2,0-0.4,0-0.6-0.1c-0.2,0-0.4-0.1-0.6-0.2c-0.2,0.1-0.3,0.3-0.4,0.4
			c-0.1,0.2-0.2,0.4-0.2,0.6c0,0.3,0.1,0.5,0.3,0.7c0.2,0.2,0.5,0.3,1.1,0.3h1.5c0.8,0,1.4,0.1,1.8,0.4c0.4,0.3,0.6,0.7,0.6,1.2
			c0,0.3-0.1,0.6-0.2,0.9c-0.2,0.3-0.4,0.5-0.7,0.8c-0.3,0.2-0.6,0.4-1.1,0.5c-0.4,0.1-0.9,0.2-1.4,0.2c-0.9,0-1.6-0.2-2.1-0.5
			C160.1,15.1,159.8,14.6,159.8,14z M160.4,14c0,0.4,0.2,0.8,0.6,1.1c0.4,0.3,1,0.4,1.7,0.4c0.4,0,0.8-0.1,1.1-0.2
			c0.3-0.1,0.6-0.2,0.8-0.4c0.2-0.2,0.4-0.4,0.5-0.6c0.1-0.2,0.2-0.4,0.2-0.7c0-0.4-0.1-0.7-0.4-0.8c-0.3-0.2-0.7-0.2-1.2-0.2h-1.5
			c-0.1,0-0.2,0-0.4,0c-0.2,0-0.3,0-0.5-0.1c-0.3,0.2-0.6,0.5-0.7,0.7C160.5,13.4,160.4,13.7,160.4,14z M162.6,9.8
			c0.2,0,0.5,0,0.7-0.1c0.2-0.1,0.4-0.2,0.6-0.4c0.2-0.2,0.3-0.4,0.4-0.6c0.1-0.2,0.1-0.5,0.1-0.8c0-0.3,0-0.6-0.1-0.8
			c-0.1-0.2-0.2-0.5-0.4-0.6c-0.2-0.2-0.4-0.3-0.6-0.4c-0.2-0.1-0.5-0.1-0.7-0.1c-0.3,0-0.5,0-0.7,0.1c-0.2,0.1-0.4,0.2-0.6,0.4
			c-0.2,0.2-0.3,0.4-0.4,0.6c-0.1,0.2-0.1,0.5-0.1,0.8c0,0.3,0,0.6,0.1,0.8c0.1,0.2,0.2,0.5,0.4,0.6c0.2,0.2,0.4,0.3,0.6,0.4
			C162.1,9.8,162.4,9.8,162.6,9.8z"/>
		<path class="st3" d="M167.9,5.5h0.6l0.1,1.1h0c0.4-0.4,0.7-0.7,1.1-0.9c0.4-0.2,0.8-0.4,1.3-0.4c0.7,0,1.3,0.2,1.6,0.7
			c0.3,0.4,0.5,1.1,0.5,2v4.5h-0.6V8.1c0-0.8-0.1-1.3-0.4-1.7c-0.3-0.4-0.7-0.5-1.2-0.5c-0.4,0-0.8,0.1-1.1,0.3
			c-0.3,0.2-0.7,0.6-1.2,1v5.3h-0.6V5.5z"/>
	</g>
	<g>
		<path class="st3" d="M133.3,26.7c0.4,0.4,0.8,0.7,1.3,1c0.5,0.2,1,0.4,1.6,0.4c0.7,0,1.3-0.2,1.8-0.5c0.4-0.4,0.6-0.8,0.6-1.4
			c0-0.3,0-0.6-0.1-0.8c-0.1-0.2-0.2-0.4-0.4-0.5c-0.2-0.2-0.3-0.3-0.6-0.4c-0.2-0.1-0.4-0.2-0.7-0.3l-1.5-0.7
			c-0.2-0.1-0.4-0.2-0.7-0.3c-0.2-0.1-0.4-0.3-0.6-0.5c-0.2-0.2-0.4-0.4-0.5-0.7c-0.1-0.3-0.2-0.6-0.2-0.9c0-0.4,0.1-0.7,0.2-1
			c0.1-0.3,0.3-0.5,0.6-0.8c0.3-0.2,0.5-0.4,0.9-0.5c0.3-0.1,0.7-0.2,1.1-0.2c0.6,0,1.1,0.1,1.6,0.3c0.5,0.2,0.8,0.5,1.1,0.8
			l-0.4,0.5c-0.3-0.3-0.6-0.5-1-0.7c-0.4-0.2-0.8-0.3-1.3-0.3c-0.6,0-1.2,0.2-1.6,0.5c-0.4,0.3-0.6,0.7-0.6,1.3
			c0,0.3,0.1,0.5,0.2,0.7c0.1,0.2,0.2,0.4,0.4,0.5c0.2,0.1,0.3,0.3,0.5,0.4c0.2,0.1,0.4,0.2,0.6,0.3l1.5,0.6
			c0.3,0.1,0.5,0.3,0.8,0.4c0.2,0.1,0.5,0.3,0.6,0.5c0.2,0.2,0.3,0.4,0.4,0.7c0.1,0.3,0.2,0.6,0.2,1c0,0.4-0.1,0.7-0.2,1
			c-0.1,0.3-0.4,0.6-0.6,0.8c-0.3,0.2-0.6,0.4-1,0.5c-0.4,0.1-0.8,0.2-1.3,0.2c-0.7,0-1.3-0.1-1.9-0.4c-0.5-0.3-1-0.6-1.4-1.1
			L133.3,26.7z"/>
		<path class="st3" d="M140.7,31c0.1,0,0.2,0,0.3,0c0.4,0,0.8-0.2,1.1-0.5c0.3-0.4,0.5-0.8,0.7-1.3l0.2-0.6l-2.9-7.2h0.7l1.7,4.4
			c0.1,0.3,0.2,0.6,0.4,1c0.1,0.4,0.3,0.7,0.4,1h0.1c0.1-0.3,0.2-0.6,0.3-1c0.1-0.4,0.2-0.7,0.3-1l1.5-4.4h0.7l-2.8,8
			c-0.1,0.3-0.2,0.6-0.4,0.9c-0.1,0.3-0.3,0.5-0.5,0.8c-0.2,0.2-0.4,0.4-0.7,0.5c-0.3,0.1-0.5,0.2-0.8,0.2c-0.3,0-0.5,0-0.7-0.1
			l0.1-0.6C140.5,31,140.6,31,140.7,31z"/>
		<path class="st3" d="M147.2,27.2c0.3,0.3,0.6,0.5,1,0.6c0.3,0.2,0.8,0.3,1.3,0.3c0.6,0,1-0.1,1.3-0.4c0.3-0.3,0.4-0.6,0.4-1
			c0-0.2-0.1-0.4-0.2-0.6c-0.1-0.2-0.2-0.3-0.4-0.4c-0.2-0.1-0.4-0.2-0.6-0.3c-0.2-0.1-0.4-0.2-0.6-0.3c-0.3-0.1-0.5-0.2-0.8-0.3
			c-0.3-0.1-0.5-0.2-0.7-0.4c-0.2-0.2-0.4-0.3-0.5-0.5c-0.1-0.2-0.2-0.5-0.2-0.8c0-0.3,0-0.5,0.1-0.7c0.1-0.2,0.2-0.4,0.4-0.6
			c0.2-0.2,0.4-0.3,0.7-0.4c0.3-0.1,0.6-0.1,1-0.1c0.4,0,0.7,0.1,1.1,0.2c0.4,0.1,0.7,0.3,0.9,0.5l-0.4,0.5
			c-0.2-0.2-0.5-0.3-0.8-0.4c-0.3-0.1-0.6-0.2-0.9-0.2c-0.3,0-0.5,0-0.7,0.1c-0.2,0.1-0.4,0.2-0.5,0.3c-0.1,0.1-0.2,0.3-0.3,0.4
			c-0.1,0.2-0.1,0.3-0.1,0.5c0,0.2,0,0.4,0.1,0.5c0.1,0.1,0.2,0.3,0.4,0.4c0.2,0.1,0.3,0.2,0.5,0.3c0.2,0.1,0.4,0.2,0.6,0.2
			c0.3,0.1,0.5,0.2,0.8,0.3c0.3,0.1,0.5,0.2,0.7,0.4c0.2,0.2,0.4,0.4,0.5,0.6c0.1,0.2,0.2,0.5,0.2,0.9c0,0.3-0.1,0.5-0.2,0.8
			c-0.1,0.2-0.3,0.5-0.5,0.6c-0.2,0.2-0.5,0.3-0.8,0.4c-0.3,0.1-0.6,0.2-1,0.2c-0.5,0-1-0.1-1.5-0.3s-0.8-0.4-1.1-0.7L147.2,27.2z"
			/>
		<path class="st3" d="M153.8,21.9h-1.1v-0.5l1.1-0.1l0.1-2h0.6v2h2v0.6h-2v4.6c0,0.2,0,0.4,0.1,0.6c0,0.2,0.1,0.3,0.2,0.5
			c0.1,0.1,0.2,0.2,0.4,0.3c0.2,0.1,0.4,0.1,0.6,0.1c0.1,0,0.3,0,0.4-0.1c0.2,0,0.3-0.1,0.4-0.2l0.2,0.5c-0.2,0.1-0.4,0.1-0.6,0.2
			c-0.2,0-0.4,0.1-0.5,0.1c-0.3,0-0.6-0.1-0.9-0.2c-0.2-0.1-0.4-0.2-0.5-0.4c-0.1-0.2-0.2-0.4-0.3-0.7c-0.1-0.3-0.1-0.6-0.1-0.9
			V21.9z"/>
		<path class="st3" d="M157.5,24.9c0-0.6,0.1-1.1,0.3-1.6c0.2-0.5,0.4-0.9,0.7-1.2c0.3-0.3,0.6-0.6,1-0.7c0.4-0.2,0.7-0.3,1.1-0.3
			c0.8,0,1.5,0.3,2,0.9c0.5,0.6,0.7,1.4,0.7,2.4c0,0.1,0,0.2,0,0.3c0,0.1,0,0.2,0,0.3h-5.1c0,0.4,0.1,0.9,0.2,1.2
			c0.1,0.4,0.3,0.7,0.5,1c0.2,0.3,0.5,0.5,0.8,0.6c0.3,0.2,0.7,0.2,1.1,0.2c0.4,0,0.7-0.1,1-0.2c0.3-0.1,0.6-0.3,0.9-0.5l0.3,0.5
			c-0.3,0.2-0.6,0.3-0.9,0.5c-0.3,0.1-0.8,0.2-1.3,0.2c-0.5,0-0.9-0.1-1.3-0.3c-0.4-0.2-0.7-0.4-1-0.7c-0.3-0.3-0.5-0.7-0.7-1.2
			C157.6,26,157.5,25.5,157.5,24.9z M162.7,24.5c0-0.9-0.2-1.6-0.6-2.1c-0.4-0.5-0.9-0.7-1.5-0.7c-0.3,0-0.6,0.1-0.9,0.2
			c-0.3,0.1-0.5,0.3-0.7,0.5c-0.2,0.2-0.4,0.5-0.5,0.9c-0.1,0.3-0.2,0.7-0.3,1.1H162.7z"/>
		<path class="st3" d="M165.2,21.4h0.6l0.1,1.1h0c0.3-0.4,0.7-0.7,1.1-0.9c0.4-0.2,0.8-0.4,1.2-0.4c0.6,0,1,0.1,1.3,0.4
			c0.3,0.3,0.5,0.6,0.6,1.1c0.4-0.4,0.8-0.8,1.2-1.1c0.4-0.3,0.8-0.4,1.2-0.4c1.4,0,2.1,0.9,2.1,2.7v4.5h-0.7V24
			c0-0.8-0.1-1.3-0.4-1.7c-0.3-0.4-0.7-0.5-1.2-0.5c-0.6,0-1.3,0.4-2.1,1.3v5.3h-0.6V24c0-0.8-0.1-1.3-0.4-1.7
			c-0.3-0.4-0.7-0.5-1.2-0.5c-0.6,0-1.3,0.4-2.1,1.3v5.3h-0.6V21.4z"/>
	</g>
</g>
</svg>
