<svg id="Layer_1" data-name="Layer 1" xmlns="http://www.w3.org/2000/svg" viewBox="0 0 237 156.74"><defs><style>.cls-1{fill:#6cb344;}</style></defs><title>icon-spring-cloud-data-flow-right-green</title><path class="cls-1" d="M123.36,6.16c33,0,63.53,23.12,71,53.78l0.85,3.51,3.48,1A44.31,44.31,0,0,1,230.84,107,43,43,0,0,1,218,137.89a44.12,44.12,0,0,1-31.2,12.69H57.65c-28.87,0-51.48-22.15-51.48-50.43,0-26.43,20.22-48.09,47-50.38l3.65-.31,1.47-3.35c10.32-23.52,37.07-39.94,65-39.94m0-6.16C92.91,0,63.84,18.21,52.68,43.63,23.16,46.14,0,70,0,100.15,0,132,25.81,156.74,57.65,156.74H186.76c27.75,0,50.24-22,50.24-49.74a50.44,50.44,0,0,0-36.68-48.51C191.92,23.85,158.18,0,123.36,0h0Z"/><path class="cls-1" d="M75,121.31c2.31,0,3.41.27,4.31,1.11,1.23,1.11,2.25,3.3,2.25,9.38s-1,8.24-2.25,9.38c-0.9.81-2,1.11-4.31,1.11H70.12c-2.31,0-3.39-.3-4.28-1.11-1.26-1.14-2.25-3.33-2.25-9.38s1-8.27,2.25-9.38c0.9-.84,2-1.11,4.28-1.11H75Zm-3.81,3.86a2.48,2.48,0,0,0-1.71.33c-0.33.3-.81,1.11-0.81,6.29s0.48,6,.81,6.26,0.6,0.33,1.71.33h2.73a2.41,2.41,0,0,0,1.74-.33c0.33-.27.81-1.08,0.81-6.26s-0.48-6-.81-6.29a2.58,2.58,0,0,0-1.74-.33H71.19Z"/><path class="cls-1" d="M93.46,137.78V123l-3,1-1.07-3.17,5-1.85h3.43v18.8H93.46Z"/><path class="cls-1" d="M116.66,114.64c1.74,0,2.57.2,3.25,0.83,0.92,0.83,1.69,2.48,1.69,7.06s-0.77,6.2-1.69,7.06c-0.68.61-1.51,0.83-3.25,0.83H113c-1.74,0-2.55-.23-3.23-0.83-0.95-.86-1.69-2.5-1.69-7.06s0.74-6.23,1.69-7.06c0.68-.63,1.49-0.83,3.23-0.83h3.68Zm-2.86,2.91a1.86,1.86,0,0,0-1.29.25c-0.25.23-.61,0.83-0.61,4.74s0.36,4.51.61,4.71a1.74,1.74,0,0,0,1.29.25h2.05a1.81,1.81,0,0,0,1.31-.25c0.25-.2.61-0.81,0.61-4.71s-0.36-4.51-.61-4.74a2,2,0,0,0-1.31-.25H113.8Z"/><path class="cls-1" d="M131.07,122.76V111.55l-2.25.77-0.81-2.4,3.76-1.4h2.6v14.24h-3.29Z"/><path class="cls-1" d="M144.1,114.69v-10.3l-2.07.71-0.75-2.2,3.45-1.29h2.39v13.09h-3Z"/><path class="cls-1" d="M158,93.38a2.79,2.79,0,0,1,2.11.54c0.6,0.54,1.1,1.61,1.1,4.59s-0.5,4-1.1,4.59a2.86,2.86,0,0,1-2.11.54h-2.39a2.82,2.82,0,0,1-2.1-.54c-0.62-.56-1.1-1.63-1.1-4.59s0.48-4,1.1-4.59a2.75,2.75,0,0,1,2.1-.54H158Zm-1.86,1.89a1.21,1.21,0,0,0-.84.16c-0.16.15-.4,0.54-0.4,3.08s0.23,2.93.4,3.07a1.13,1.13,0,0,0,.84.16h1.34a1.18,1.18,0,0,0,.85-0.16c0.16-.13.4-0.53,0.4-3.07s-0.23-2.93-.4-3.08a1.27,1.27,0,0,0-.85-0.16h-1.34Z"/><path class="cls-1" d="M167.31,83.43a2.31,2.31,0,0,1,1.75.45c0.5,0.45.91,1.34,0.91,3.8s-0.41,3.34-.91,3.8a2.37,2.37,0,0,1-1.75.45h-2a2.33,2.33,0,0,1-1.74-.45c-0.51-.46-0.91-1.35-0.91-3.8s0.4-3.35.91-3.8a2.28,2.28,0,0,1,1.74-.45h2ZM165.77,85a1,1,0,0,0-.69.13c-0.13.12-.33,0.45-0.33,2.55s0.19,2.43.33,2.54a0.94,0.94,0,0,0,.69.13h1.11a1,1,0,0,0,.7-0.13c0.13-.11.33-0.44,0.33-2.54s-0.19-2.43-.33-2.55a1,1,0,0,0-.7-0.13h-1.11Z"/><path class="cls-1" d="M174.06,74.17a1.68,1.68,0,0,1,1.27.33c0.36,0.33.66,1,.66,2.77s-0.3,2.43-.66,2.77a1.72,1.72,0,0,1-1.27.33h-1.44a1.7,1.7,0,0,1-1.26-.33c-0.37-.34-0.66-1-0.66-2.77s0.29-2.44.66-2.77a1.66,1.66,0,0,1,1.26-.33h1.44Zm-1.12,1.14a0.73,0.73,0,0,0-.5.1c-0.1.09-.24,0.33-0.24,1.86s0.14,1.77.24,1.85a0.68,0.68,0,0,0,.5.1h0.8a0.71,0.71,0,0,0,.51-0.1c0.1-.08.24-0.32,0.24-1.85s-0.14-1.77-.24-1.86a0.76,0.76,0,0,0-.51-0.1h-0.8Z"/><path class="cls-1" d="M189.19,9.42c-6.8,19.72-30.68,35.16-50,39.76C121,53.5,105,50,88.2,56.41c-32.47,12.48-34.64,43-23.72,60.79,0.85,1.39,43.09-2,63.84-10.87,27.62-11.84,44.11-34.18,48.39-42.5a2.85,2.85,0,0,1,3-.71,2.41,2.41,0,0,1,1.82,2.48,89.28,89.28,0,0,1-42,57.43c-14.58,8.61-25.76,12.85-33.93,15.07-1.37.37-1.31,1.39,0.26,1.38,20-.15,65.63,2.77,84.63-21.38C212.5,88.78,200.86,42.61,189.19,9.42Z"/></svg>